<svg width="156" height="166" viewBox="0 0 156 166" fill="none" xmlns="http://www.w3.org/2000/svg">
<g clip-path="url(#clip0_12_211)">
<rect width="156" height="166" fill="black"/>
<rect width="156" height="166" fill="#0A0909"/>
<path d="M67.0971 64.24L60.9531 48.88H105.497L102.617 64.24H67.0971ZM66.2331 69.04H84.9531V77.296H100.889L98.0091 92.656H84.9531V118H66.2331V69.04ZM108.982 81.2H120.502V118H108.982V81.2ZM108.662 69.68H120.822V78.384H108.662V69.68Z" fill="#41B783"/>
<line x1="48.4999" y1="31.9908" x2="50.4999" y2="140.991" stroke="#41B783"/>
<line x1="48" y1="31.5" x2="93" y2="31.5" stroke="#41B783"/>
<line x1="50" y1="140.5" x2="93" y2="140.5" stroke="#41B783"/>
<line x1="93.5" y1="131" x2="93.5" y2="141" stroke="#41B783"/>
<line x1="92.5" y1="32" x2="92.5" y2="51" stroke="#41B783"/>
<line x1="78.5" y1="32" x2="78.5" y2="19" stroke="#41B783"/>
<line x1="79" y1="19.5" x2="38" y2="19.5" stroke="#41B783"/>
<line x1="38.5" y1="19" x2="38.5" y2="125" stroke="#41B783"/>
<line x1="38" y1="124.5" x2="50" y2="124.5" stroke="#41B783"/>
<path d="M75.8987 122.52L75.3867 121.24H79.0987L78.8587 122.52H75.8987ZM75.8267 122.92H77.3867V123.608H78.7147L78.4747 124.888H77.3867V127H75.8267V122.92ZM79.5358 121.24H81.0958V127H79.5358V121.24ZM83.457 124.36V125.944H83.537C83.8037 125.944 83.9984 125.896 84.121 125.8C84.249 125.699 84.313 125.523 84.313 125.272C84.313 125.043 84.2517 124.864 84.129 124.736C84.3744 124.683 84.5984 124.613 84.801 124.528C85.0037 124.443 85.1744 124.331 85.313 124.192C85.537 124.325 85.697 124.496 85.793 124.704C85.889 124.907 85.937 125.157 85.937 125.456C85.937 125.952 85.7557 126.333 85.393 126.6C85.0304 126.867 84.4784 127 83.737 127H81.897V122.736H83.457V123.608H83.529C83.769 123.608 83.9424 123.563 84.049 123.472C84.161 123.376 84.217 123.211 84.217 122.976C84.217 122.736 84.161 122.571 84.049 122.48C83.9424 122.384 83.769 122.336 83.529 122.336H81.897L81.457 121.24H83.857C84.5024 121.24 84.9717 121.373 85.265 121.64C85.5584 121.907 85.705 122.28 85.705 122.76C85.705 123.064 85.6357 123.32 85.497 123.528C85.3637 123.731 85.185 123.893 84.961 124.016C84.737 124.139 84.4944 124.227 84.233 124.28C83.9717 124.333 83.713 124.36 83.457 124.36ZM88.6338 127.072V125.792C88.7512 125.723 88.8312 125.563 88.8738 125.312C88.9165 125.061 88.9378 124.661 88.9378 124.112C88.9378 123.557 88.9165 123.16 88.8738 122.92C88.8312 122.675 88.7512 122.52 88.6338 122.456V121.184C89.1085 121.2 89.4898 121.304 89.7778 121.496C90.0712 121.688 90.2845 121.995 90.4178 122.416C90.5512 122.837 90.6178 123.408 90.6178 124.128C90.6178 124.848 90.5512 125.419 90.4178 125.84C90.2845 126.261 90.0712 126.568 89.7778 126.76C89.4898 126.947 89.1085 127.051 88.6338 127.072ZM88.2338 125.792V127.08C87.7645 127.059 87.3832 126.952 87.0898 126.76C86.7965 126.568 86.5832 126.261 86.4498 125.84C86.3165 125.419 86.2498 124.848 86.2498 124.128C86.2498 123.408 86.3165 122.837 86.4498 122.416C86.5832 121.995 86.7938 121.688 87.0818 121.496C87.3752 121.304 87.7592 121.2 88.2338 121.184V122.456C88.1165 122.52 88.0365 122.675 87.9938 122.92C87.9512 123.165 87.9298 123.563 87.9298 124.112C87.9298 124.661 87.9512 125.064 87.9938 125.32C88.0365 125.571 88.1165 125.728 88.2338 125.792ZM95.4588 127H93.5868L90.7148 121.24H92.5708L95.4588 127ZM95.4588 126.104L93.9388 123.152V121.24H95.4588V126.104ZM91.0428 122.736L92.5628 125.808V127H91.0428V122.736ZM97.4724 121.176H99.1604L100.496 127H98.8404L98.7524 126.624H98.0084L98.2244 125.384H98.4644L97.4724 121.176ZM97.5284 127H95.8564L97.1844 121.712L97.9284 124.832L97.5284 127ZM102.133 123.952H100.453C100.469 123.248 100.568 122.696 100.749 122.296C100.936 121.891 101.202 121.603 101.549 121.432C101.896 121.261 102.325 121.176 102.837 121.176C103.008 121.176 103.202 121.187 103.421 121.208C103.645 121.224 103.861 121.256 104.069 121.304V123.416H103.101L102.973 122.448C102.84 122.448 102.72 122.464 102.613 122.496C102.512 122.528 102.426 122.595 102.357 122.696C102.288 122.792 102.234 122.941 102.197 123.144C102.16 123.347 102.138 123.616 102.133 123.952ZM100.453 124.352H102.133C102.16 124.896 102.274 125.272 102.477 125.48C102.68 125.683 102.984 125.784 103.389 125.784C103.517 125.784 103.64 125.776 103.757 125.76C103.874 125.744 104 125.725 104.133 125.704V126.968C103.978 127.005 103.792 127.032 103.573 127.048C103.354 127.069 103.16 127.08 102.989 127.08C102.109 127.08 101.472 126.851 101.077 126.392C100.688 125.933 100.48 125.253 100.453 124.352ZM106.133 123.952H104.453C104.469 123.248 104.568 122.696 104.749 122.296C104.936 121.891 105.202 121.603 105.549 121.432C105.896 121.261 106.325 121.176 106.837 121.176C107.008 121.176 107.202 121.187 107.421 121.208C107.645 121.224 107.861 121.256 108.069 121.304V123.416H107.101L106.973 122.448C106.84 122.448 106.72 122.464 106.613 122.496C106.512 122.528 106.426 122.595 106.357 122.696C106.288 122.792 106.234 122.941 106.197 123.144C106.16 123.347 106.138 123.616 106.133 123.952ZM104.453 124.352H106.133C106.16 124.896 106.274 125.272 106.477 125.48C106.68 125.683 106.984 125.784 107.389 125.784C107.517 125.784 107.64 125.776 107.757 125.76C107.874 125.744 108 125.725 108.133 125.704V126.968C107.978 127.005 107.792 127.032 107.573 127.048C107.354 127.069 107.16 127.08 106.989 127.08C106.109 127.08 105.472 126.851 105.077 126.392C104.688 125.933 104.48 125.253 104.453 124.352ZM108.692 121.24H110.252V127H108.692V121.24Z" fill="#41B783"/>
</g>
<defs>
<clipPath id="clip0_12_211">
<rect width="156" height="166" fill="white"/>
</clipPath>
</defs>
</svg>
